<svg width="74" height="27" viewBox="0 0 74 27" fill="none" xmlns="http://www.w3.org/2000/svg">
<path d="M57.7725 6.65868L64.1864 6.54618C63.9306 7.38989 61.1776 16.5543 61.1776 17.5384C61.1776 18.1292 61.3479 18.3537 61.6599 18.3537C62.5965 18.3537 65.1031 13.4296 65.4713 12.8393L65.0656 15.9362C64.1858 17.9327 62.483 20.153 60.042 20.153C58.3397 20.153 57.0906 19.169 57.0906 17.2855C57.0906 14.7271 59.2476 10.0324 59.2476 8.62623C59.2476 7.95181 58.907 7.72682 57.488 7.67003L57.7725 6.65868ZM62.994 0.473145C64.1296 0.473145 65.2646 1.40095 65.2646 2.63784C65.2646 3.87472 64.1296 4.80253 62.994 4.80253C61.8589 4.80253 60.7239 3.87472 60.7239 2.63784C60.7239 1.40149 61.8589 0.473145 62.994 0.473145Z" fill="black"/>
<path d="M70.9351 6.60262H74.0001L73.7167 7.78326H70.5944L68.4092 15.683C68.2102 16.3574 67.9269 17.342 67.9269 18.0448C67.9269 18.4385 68.0967 18.8039 68.5509 18.8039C69.9698 18.8039 71.0768 16.442 71.5872 15.4585L72.5238 15.9647C71.7008 17.9607 70.2251 20.1538 67.8133 20.1538C65.7417 20.1538 64.4644 18.4669 64.4644 16.5272C64.4644 15.5716 64.6629 14.6432 64.9181 13.716L66.5642 7.78381H64.2373L64.5212 6.60317H66.9048L67.9836 2.72376L72.0415 2.61127L70.9351 6.60262Z" fill="black"/>
<path d="M0 0H6.02855C12.2864 0 16.4776 4.33211 16.4776 10.0458C16.4776 15.6798 12.1718 20.0381 5.99988 20.0381H0V0ZM4.21987 16.636H4.90894C10.1051 16.636 12.1139 13.9782 12.1139 10.0185C12.1139 5.6602 9.70267 3.40158 4.90894 3.40158H4.21987V16.636Z" fill="black"/>
<path d="M21.3002 8.34463H21.3576C22.1613 7.20222 23.3669 6.56384 24.8597 6.56384C25.4341 6.56384 26.008 6.69709 26.5245 6.8833L26.0366 10.3379C25.5482 10.0189 24.9743 9.85948 24.3713 9.85948C21.5869 9.85948 21.2997 12.1449 21.2997 14.1643V20.0375H17.281V6.98924H21.2997V8.34463H21.3002Z" fill="black"/>
<path d="M41.0362 13.5268C41.0362 17.5662 38.0511 20.4626 33.63 20.4626C29.2089 20.4626 26.2239 17.5662 26.2239 13.5268C26.2239 9.4606 29.2381 6.56415 33.63 6.56415C38.0219 6.56415 41.0362 9.4606 41.0362 13.5268ZM30.2999 13.5268C30.2999 15.2808 31.5634 17.1675 33.63 17.1675C35.6972 17.1675 36.9596 15.2808 36.9596 13.5268C36.9596 11.7198 35.6967 9.85979 33.63 9.85979C31.5628 9.85924 30.2999 11.7192 30.2999 13.5268Z" fill="black"/>
<path d="M45.8221 8.18518C46.7405 7.17546 48.2333 6.56384 49.7261 6.56384C53.7161 6.56384 56.1565 10.0189 56.1565 13.4473C56.1565 17.0083 53.8021 20.4629 49.6401 20.4629C48.2047 20.4629 46.6832 19.878 45.8795 18.8153H45.8221V27.0001H41.8035V6.98924H45.8221V8.18518ZM52.08 13.5002C52.08 11.7462 50.8171 9.85948 48.7504 9.85948C46.6837 9.85948 45.4203 11.7462 45.4203 13.5002C45.4203 15.2543 46.6832 17.1678 48.7504 17.1678C50.8171 17.1678 52.08 15.2543 52.08 13.5002Z" fill="black"/>
</svg>
